<svg width="40" height="40" viewBox="0 0 40 40" fill="none" xmlns="http://www.w3.org/2000/svg">
<path fill-rule="evenodd" clip-rule="evenodd" d="M19.8581 39.7154C8.89096 39.7154 0.000366211 30.8248 0.000366211 19.8577C0.000366211 8.89059 8.89096 0 19.8581 0C30.8252 0 39.7158 8.89059 39.7158 19.8577C39.7158 30.8248 30.8252 39.7154 19.8581 39.7154ZM32.0216 14.2712C31.1706 14.6485 30.2552 14.9037 29.2952 15.0177C30.2754 14.4304 31.0276 13.5012 31.3827 12.3922C30.4655 12.9363 29.4492 13.331 28.3685 13.5437C27.5027 12.6216 26.269 12.0453 24.903 12.0453C22.2821 12.0453 20.1565 14.171 20.1565 16.7919C20.1565 17.1639 20.1986 17.526 20.28 17.8736C16.3352 17.6758 12.8375 15.7862 10.4963 12.9136C10.0878 13.6145 9.85346 14.4304 9.85346 15.3002C9.85346 16.9465 10.692 18.4 11.965 19.251C11.1873 19.2265 10.4549 19.0131 9.81523 18.6566C9.81488 18.6768 9.81488 18.697 9.81488 18.7168C9.81488 21.0166 11.4517 22.9349 13.6227 23.3706C13.2248 23.4796 12.8046 23.5373 12.3724 23.5373C12.0659 23.5373 11.7689 23.508 11.4793 23.4527C12.0832 25.3381 13.8358 26.7104 15.9133 26.749C14.2885 28.0223 12.2421 28.7809 10.0177 28.7809C9.63541 28.7809 9.25665 28.7586 8.88603 28.7143C10.9855 30.0616 13.4811 30.8471 16.1614 30.8471C24.892 30.8471 29.6666 23.6145 29.6666 17.3416C29.6666 17.1359 29.662 16.931 29.6528 16.7278C30.5809 16.0588 31.3855 15.223 32.0216 14.2712Z" fill="url(#paint0_linear)"/>
<defs>
<linearGradient id="paint0_linear" x1="19.8581" y1="0" x2="19.8581" y2="39.7154" gradientUnits="userSpaceOnUse">
<stop stop-color="#00F0E0"/>
<stop offset="1" stop-color="#5EAEFD"/>
</linearGradient>
</defs>
</svg>
