<svg width="39" height="39" viewBox="0 0 39 39" fill="none" xmlns="http://www.w3.org/2000/svg">
<path fill-rule="evenodd" clip-rule="evenodd" d="M36.3842 9.95542C34.6405 6.8928 32.2752 4.46812 29.2878 2.68084C26.2999 0.893461 23.038 0 19.4998 0C15.9621 0 12.6991 0.893734 9.71189 2.68084C6.72419 4.46803 4.359 6.8928 2.61526 9.95542C0.871783 13.0179 0 16.3622 0 19.9882C0 24.3439 1.23969 28.2606 3.71969 31.7393C6.19942 35.2184 9.40286 37.6257 13.3298 38.9617C13.7869 39.0486 14.1252 38.9875 14.3452 38.7797C14.5653 38.5717 14.6753 38.3111 14.6753 37.9992C14.6753 37.9471 14.6709 37.4789 14.6625 36.5938C14.6537 35.7087 14.6497 34.9366 14.6497 34.2778L14.0657 34.3813C13.6933 34.4512 13.2236 34.4809 12.6565 34.4725C12.0896 34.4644 11.5012 34.4035 10.8919 34.2903C10.2824 34.178 9.71545 33.9178 9.19067 33.51C8.66616 33.1023 8.29381 32.5685 8.07371 31.9096L7.81981 31.3107C7.65058 30.912 7.38414 30.469 7.02015 29.9835C6.65616 29.4975 6.28808 29.1681 5.91573 28.9946L5.73796 28.8641C5.6195 28.7774 5.50958 28.6729 5.40794 28.5515C5.30638 28.4302 5.23034 28.3088 5.17956 28.1872C5.1287 28.0655 5.17085 27.9657 5.30647 27.8874C5.44209 27.809 5.68718 27.771 6.04281 27.771L6.55042 27.8488C6.88898 27.9183 7.30775 28.1261 7.80727 28.4733C8.30653 28.8203 8.71694 29.2713 9.0386 29.8263C9.42812 30.5379 9.8974 31.0801 10.4478 31.4533C10.9977 31.8264 11.5522 32.0126 12.1107 32.0126C12.6692 32.0126 13.1515 31.9692 13.5579 31.8829C13.9639 31.7961 14.3448 31.6657 14.7004 31.4923C14.8528 30.3293 15.2675 29.4358 15.9444 28.8113C14.9797 28.7073 14.1123 28.5508 13.3419 28.3427C12.572 28.1343 11.7763 27.7961 10.9555 27.3272C10.1342 26.8589 9.45293 26.2774 8.91143 25.5836C8.36985 24.8895 7.92537 23.9783 7.57863 22.8508C7.23172 21.7227 7.05822 20.4215 7.05822 18.9467C7.05822 16.8469 7.72697 15.0599 9.06421 13.585C8.43779 12.0062 8.49693 10.2365 9.24181 8.27579C9.7327 8.11945 10.4607 8.23678 11.4254 8.62703C12.3903 9.01747 13.0968 9.35194 13.5455 9.62925C13.9942 9.90647 14.3538 10.1414 14.6247 10.3319C16.1992 9.88094 17.824 9.65541 19.4996 9.65541C21.1753 9.65541 22.8005 9.88094 24.3751 10.3319L25.3399 9.70755C25.9996 9.29095 26.7788 8.90917 27.6754 8.56213C28.5725 8.21526 29.2585 8.11973 29.7327 8.27607C30.4941 10.2368 30.5619 12.0065 29.9353 13.5852C31.2725 15.0602 31.9415 16.8476 31.9415 18.947C31.9415 20.4218 31.7674 21.7271 31.421 22.8638C31.0742 24.0006 30.6259 24.911 30.0759 25.5967C29.5254 26.2823 28.8397 26.8592 28.0189 27.3274C27.1979 27.796 26.402 28.1342 25.632 28.3426C24.8617 28.551 23.9944 28.7076 23.0296 28.8117C23.9095 29.5922 24.3495 30.8243 24.3495 32.5073V37.9985C24.3495 38.3104 24.4554 38.5709 24.6672 38.779C24.8788 38.9867 25.2129 39.0479 25.67 38.9608C29.5974 37.6251 32.8009 35.2176 35.2805 31.7386C37.7599 28.2598 39 24.3431 39 19.9875C38.9991 16.362 38.1269 13.0179 36.3842 9.95542Z" fill="url(#paint0_linear)"/>
<defs>
<linearGradient id="paint0_linear" x1="19.5" y1="0" x2="19.5" y2="39" gradientUnits="userSpaceOnUse">
<stop stop-color="#00F0E0"/>
<stop offset="1" stop-color="#5EAEFD"/>
</linearGradient>
</defs>
</svg>
