<svg width="167" height="147" viewBox="0 0 167 147" fill="none" xmlns="http://www.w3.org/2000/svg">
<path fill-rule="evenodd" clip-rule="evenodd" d="M81.9156 141.665L66.1762 140.772L56.5479 135.469C56.5479 135.469 28.2521 114.846 25.3694 104.224L66.1762 115.379L81.9156 141.665Z" fill="url(#paint0_linear)"/>
<path d="M55.1708 114.448L63.7291 136.455" stroke="#0F1414"/>
<path d="M42.9446 112.002L46.3068 125.757" stroke="#0F1414"/>
<path fill-rule="evenodd" clip-rule="evenodd" d="M66.4088 115.907L60.8855 117.601L55.1798 114.908L47.0892 116.755L43.0439 112.436L36.1271 114.908L29.6632 113.015C29.6632 113.015 14.4976 87.6275 11.6149 77.005L46.1556 77.9374L53.3393 82.8984L66.4088 115.907Z" fill="url(#paint1_linear)"/>
<path d="M44.9109 81.3561L55.1798 114.908" stroke="#0F1414"/>
<path d="M37.0739 81.8992L43.0962 112.57" stroke="#0F1414"/>
<path d="M28.7297 79.1806L29.9744 106.531" stroke="#0F1414"/>
<path d="M20.0167 77.9374L20.6391 92.234" stroke="#0F1414"/>
<path fill-rule="evenodd" clip-rule="evenodd" d="M46.3745 55.1091L53.2683 82.5365L49.902 83.7349L45.0121 80.7602L40.6809 82.9756L37.0729 81.5393L32.1732 82.5365L28.5164 78.5694L23.7353 80.7602L20.1958 77.3285L13.7527 81.5393C13.7527 81.5393 6.53817 59.0836 3.66788 48.4832L45.1287 20.7645L46.3745 55.1091Z" fill="url(#paint2_linear)"/>
<path d="M41.4214 56.1854L45.1679 81.0009" stroke="#0F1414"/>
<path d="M36.8204 54.5468L36.9246 81.9742" stroke="#0F1414"/>
<path d="M30.587 51.8434L28.4681 78.6814" stroke="#0F1414"/>
<path d="M24.7453 49.9825L20.0892 77.5858" stroke="#0F1414"/>
<path d="M20.0892 46.2606L12.6531 72.6234" stroke="#0F1414"/>
<mask id="path-15-inside-1" fill="white">
<path fill-rule="evenodd" clip-rule="evenodd" d="M36.5915 21.6892C22.436 29.5274 0 47.3488 0 47.3488C0 47.3488 5.96954 83.9517 27.8056 112.362C49.6416 140.772 77.0251 147 77.0251 147C77.0251 147 104.208 140.772 126.167 112.362C148.127 83.9517 154.05 47.3488 154.05 47.3488C154.05 47.3488 132.244 30.1312 116.875 21.6892C101.505 13.2472 76.7145 4.87036 76.7145 4.87036C76.7145 4.87036 50.7471 13.851 36.5915 21.6892ZM40.5985 27.0996C27.737 34.2098 7.35213 50.3759 7.35213 50.3759C7.35213 50.3759 12.7759 83.5791 32.6158 109.35C52.4556 135.122 77.3357 140.772 77.3357 140.772C77.3357 140.772 102.033 135.122 121.985 109.35C141.937 83.5791 147.319 50.3759 147.319 50.3759C147.319 50.3759 127.507 34.7575 113.542 27.0996C99.5779 19.4417 77.0535 11.8429 77.0535 11.8429C77.0535 11.8429 53.46 19.9894 40.5985 27.0996Z"/>
</mask>
<path fill-rule="evenodd" clip-rule="evenodd" d="M36.5915 21.6892C22.436 29.5274 0 47.3488 0 47.3488C0 47.3488 5.96954 83.9517 27.8056 112.362C49.6416 140.772 77.0251 147 77.0251 147C77.0251 147 104.208 140.772 126.167 112.362C148.127 83.9517 154.05 47.3488 154.05 47.3488C154.05 47.3488 132.244 30.1312 116.875 21.6892C101.505 13.2472 76.7145 4.87036 76.7145 4.87036C76.7145 4.87036 50.7471 13.851 36.5915 21.6892ZM40.5985 27.0996C27.737 34.2098 7.35213 50.3759 7.35213 50.3759C7.35213 50.3759 12.7759 83.5791 32.6158 109.35C52.4556 135.122 77.3357 140.772 77.3357 140.772C77.3357 140.772 102.033 135.122 121.985 109.35C141.937 83.5791 147.319 50.3759 147.319 50.3759C147.319 50.3759 127.507 34.7575 113.542 27.0996C99.5779 19.4417 77.0535 11.8429 77.0535 11.8429C77.0535 11.8429 53.46 19.9894 40.5985 27.0996Z" fill="#0E1313"/>
<path d="M0 47.3488L-0.621979 46.5657L-1.0814 46.9306L-0.98696 47.5097L0 47.3488ZM27.8056 112.362L28.5984 111.752L28.5984 111.752L27.8056 112.362ZM77.0251 147L76.8033 147.975L77.0259 148.026L77.2484 147.975L77.0251 147ZM154.05 47.3488L155.037 47.5085L155.131 46.9282L154.67 46.5639L154.05 47.3488ZM76.7145 4.87036L77.0346 3.92298L76.7107 3.81355L76.3877 3.92528L76.7145 4.87036ZM7.35213 50.3759L6.73077 49.5924L6.27051 49.9574L6.36521 50.5371L7.35213 50.3759ZM40.5985 27.0996L41.0823 27.9748L41.0823 27.9748L40.5985 27.0996ZM32.6158 109.35L31.8234 109.96L31.8234 109.96L32.6158 109.35ZM77.3357 140.772L77.1142 141.747L77.3365 141.797L77.5587 141.746L77.3357 140.772ZM121.985 109.35L122.776 109.963L122.776 109.963L121.985 109.35ZM147.319 50.3759L148.306 50.5359L148.401 49.9549L147.938 49.5906L147.319 50.3759ZM113.542 27.0996L113.061 27.9764L113.061 27.9764L113.542 27.0996ZM77.0535 11.8429L77.3731 10.8954L77.0497 10.7863L76.7271 10.8977L77.0535 11.8429ZM0 47.3488C0.621979 48.1318 0.622029 48.1317 0.622164 48.1316C0.622323 48.1315 0.622544 48.1313 0.622861 48.1311C0.623496 48.1306 0.624472 48.1298 0.625786 48.1288C0.628414 48.1267 0.632396 48.1235 0.637718 48.1193C0.648362 48.1109 0.664364 48.0982 0.685606 48.0814C0.728091 48.0477 0.79154 47.9975 0.875013 47.9316C1.04196 47.7998 1.28901 47.6053 1.60865 47.3547C2.24796 46.8535 3.1776 46.1283 4.3376 45.2335C6.65784 43.4436 9.89863 40.9756 13.5805 38.2635C20.9565 32.8302 30.0595 26.4492 37.076 22.564L36.1071 20.8144C28.968 24.7674 19.7753 31.2162 12.3944 36.6532C8.6978 39.3761 5.44488 41.8534 3.116 43.6499C1.95146 44.5483 1.01769 45.2766 0.374734 45.7807C0.053248 46.0327 -0.195553 46.2287 -0.364168 46.3618C-0.448477 46.4283 -0.51274 46.4792 -0.55602 46.5134C-0.57766 46.5306 -0.594055 46.5436 -0.605087 46.5523C-0.610604 46.5567 -0.614779 46.56 -0.617599 46.5622C-0.619009 46.5634 -0.62008 46.5642 -0.620811 46.5648C-0.621176 46.5651 -0.621468 46.5653 -0.621651 46.5655C-0.621858 46.5656 -0.621979 46.5657 0 47.3488ZM28.5984 111.752C17.7733 97.6681 10.8655 81.5291 6.66323 68.886C4.56362 62.5692 3.14307 57.1363 2.24796 53.2855C1.80046 51.3603 1.48446 49.8313 1.28068 48.7857C1.1788 48.263 1.10499 47.8611 1.05684 47.5912C1.03276 47.4562 1.0151 47.3542 1.00355 47.2865C0.99778 47.2526 0.993536 47.2274 0.990783 47.2109C0.989407 47.2026 0.988403 47.1966 0.987768 47.1927C0.98745 47.1908 0.987224 47.1894 0.98709 47.1886C0.987023 47.1882 0.98699 47.188 0.986957 47.1878C0.986947 47.1877 0.98696 47.1878 0 47.3488C-0.98696 47.5097 -0.986902 47.5101 -0.98682 47.5106C-0.986762 47.5109 -0.986658 47.5116 -0.986542 47.5123C-0.986311 47.5137 -0.985988 47.5157 -0.985572 47.5182C-0.984741 47.5232 -0.983539 47.5305 -0.981963 47.5399C-0.978811 47.5588 -0.974159 47.5865 -0.967971 47.6228C-0.955594 47.6953 -0.937069 47.8023 -0.912092 47.9423C-0.862139 48.2224 -0.786376 48.6347 -0.68238 49.1683C-0.474396 50.2355 -0.153439 51.788 0.299897 53.7383C1.20645 57.6383 2.64304 63.1318 4.76532 69.5169C9.00679 82.2777 16.0018 98.6452 27.0127 112.971L28.5984 111.752ZM77.0251 147C77.2469 146.025 77.2472 146.025 77.2473 146.025C77.2473 146.025 77.2473 146.025 77.2472 146.025C77.2469 146.025 77.2461 146.025 77.245 146.024C77.2427 146.024 77.2388 146.023 77.2332 146.022C77.222 146.019 77.2043 146.015 77.1802 146.009C77.132 145.997 77.0581 145.979 76.9595 145.954C76.7624 145.904 76.4666 145.825 76.0802 145.715C75.3072 145.495 74.172 145.147 72.7384 144.64C69.8711 143.627 65.8125 141.98 61.0745 139.452C51.5987 134.397 39.4134 125.823 28.5984 111.752L27.0127 112.971C38.0338 127.31 50.4582 136.055 60.1332 141.217C64.9706 143.798 69.1226 145.483 72.072 146.526C73.5469 147.047 74.7215 147.407 75.5314 147.638C75.9364 147.754 76.2503 147.837 76.4649 147.892C76.5722 147.919 76.6548 147.94 76.7115 147.953C76.7399 147.96 76.7618 147.965 76.7771 147.969C76.7848 147.971 76.7908 147.972 76.7952 147.973C76.7974 147.974 76.7991 147.974 76.8005 147.974C76.8012 147.975 76.8019 147.975 76.8022 147.975C76.8028 147.975 76.8033 147.975 77.0251 147ZM125.376 111.75C114.498 125.823 102.331 134.398 92.8894 139.453C88.1686 141.981 84.1311 143.627 81.2806 144.641C79.8555 145.147 78.7276 145.495 77.9599 145.716C77.5761 145.826 77.2824 145.904 77.0868 145.955C76.9889 145.98 76.9156 145.998 76.8678 146.009C76.8438 146.015 76.8263 146.019 76.8153 146.022C76.8097 146.023 76.8058 146.024 76.8036 146.025C76.8025 146.025 76.8017 146.025 76.8014 146.025C76.8013 146.025 76.8014 146.025 76.8013 146.025C76.8015 146.025 76.8017 146.025 77.0251 147C77.2484 147.975 77.2489 147.975 77.2495 147.974C77.2499 147.974 77.2506 147.974 77.2512 147.974C77.2526 147.974 77.2543 147.973 77.2565 147.973C77.2609 147.972 77.2669 147.97 77.2745 147.969C77.2897 147.965 77.3115 147.96 77.3397 147.953C77.3961 147.939 77.4781 147.919 77.5847 147.892C77.7979 147.837 78.1097 147.754 78.512 147.638C79.3167 147.407 80.484 147.046 81.9504 146.525C84.883 145.483 89.0136 143.797 93.8334 141.216C103.473 136.055 115.877 127.31 126.958 112.973L125.376 111.75ZM154.05 47.3488C153.063 47.189 153.063 47.1889 153.063 47.189C153.063 47.1892 153.063 47.1894 153.063 47.1898C153.063 47.1906 153.063 47.192 153.062 47.1939C153.062 47.1977 153.061 47.2038 153.059 47.212C153.056 47.2285 153.052 47.2538 153.047 47.2876C153.035 47.3553 153.018 47.4573 152.994 47.5922C152.946 47.8622 152.872 48.2639 152.771 48.7866C152.568 49.8321 152.254 51.361 151.807 53.286C150.915 57.1366 149.496 62.5692 147.395 68.8858C143.189 81.5282 136.262 97.6664 125.376 111.75L126.958 112.973C138.032 98.6468 145.047 82.2787 149.292 69.5171C151.417 63.1317 152.851 57.638 153.756 53.7377C154.208 51.7873 154.527 50.2347 154.734 49.1674C154.838 48.6338 154.913 48.2214 154.963 47.9413C154.988 47.8012 155.006 47.6942 155.018 47.6216C155.025 47.5853 155.029 47.5577 155.032 47.5387C155.034 47.5293 155.035 47.522 155.036 47.517C155.036 47.5145 155.037 47.5125 155.037 47.5111C155.037 47.5104 155.037 47.5097 155.037 47.5094C155.037 47.5089 155.037 47.5085 154.05 47.3488ZM116.393 22.5657C124.02 26.7547 133.271 33.1383 140.638 38.4936C144.316 41.1677 147.516 43.5787 149.796 45.3211C150.935 46.1922 151.845 46.896 152.469 47.3817C152.781 47.6245 153.022 47.8128 153.185 47.9403C153.266 48.004 153.327 48.0525 153.369 48.085C153.389 48.1012 153.405 48.1135 153.415 48.1216C153.42 48.1257 153.424 48.1287 153.427 48.1307C153.428 48.1317 153.429 48.1325 153.43 48.1329C153.43 48.1332 153.43 48.1333 153.43 48.1335C153.43 48.1336 153.43 48.1336 154.05 47.3488C154.67 46.5639 154.67 46.5638 154.67 46.5637C154.669 46.5635 154.669 46.5633 154.669 46.563C154.668 46.5624 154.667 46.5616 154.666 46.5605C154.663 46.5583 154.659 46.5551 154.653 46.5509C154.643 46.5424 154.627 46.5298 154.606 46.5132C154.563 46.48 154.501 46.4308 154.419 46.3664C154.254 46.2375 154.011 46.0476 153.697 45.8032C153.069 45.3143 152.155 44.607 151.01 43.7321C148.721 41.9824 145.508 39.5614 141.814 36.8759C134.435 31.5119 125.099 25.0657 117.356 20.8127L116.393 22.5657ZM76.7145 4.87036C76.3944 5.81774 76.3944 5.81775 76.3946 5.8178C76.3947 5.81785 76.395 5.81793 76.3953 5.81805C76.396 5.81828 76.397 5.81864 76.3985 5.81912C76.4013 5.82009 76.4057 5.82157 76.4115 5.82354C76.4232 5.8275 76.4408 5.83347 76.4642 5.84142C76.511 5.85733 76.5809 5.88115 76.6729 5.91264C76.857 5.97562 77.1295 6.06928 77.482 6.19157C78.1872 6.43616 79.2126 6.79529 80.4914 7.25272C83.0493 8.16768 86.6199 9.47548 90.6694 11.0463C98.7789 14.1922 108.769 18.3776 116.393 22.5657L117.356 20.8127C109.611 16.5587 99.5209 12.3348 91.3927 9.18171C87.3233 7.60311 83.7356 6.28908 81.165 5.36957C79.8796 4.90977 78.8481 4.5485 78.1375 4.30201C77.7821 4.17876 77.507 4.0842 77.3204 4.02036C77.2271 3.98843 77.156 3.96419 77.108 3.94787C77.084 3.93972 77.0658 3.93354 77.0535 3.92939C77.0474 3.92731 77.0427 3.92573 77.0396 3.92466C77.038 3.92413 77.0368 3.92372 77.036 3.92344C77.0356 3.9233 77.0352 3.92319 77.035 3.92312C77.0348 3.92303 77.0346 3.92298 76.7145 4.87036ZM37.076 22.564C44.0911 18.6796 54.0683 14.4951 62.325 11.272C66.4466 9.66306 70.1272 8.29838 72.7773 7.33599C74.1022 6.85485 75.1691 6.47437 75.9045 6.21434C76.2721 6.08433 76.5568 5.98443 76.7494 5.91712C76.8457 5.88347 76.9189 5.85796 76.968 5.84091C76.9925 5.83238 77.0109 5.82597 77.0232 5.82172C77.0294 5.81959 77.034 5.818 77.037 5.81695C77.0385 5.81642 77.0396 5.81604 77.0403 5.81578C77.0407 5.81566 77.041 5.81557 77.0411 5.81551C77.0413 5.81546 77.0413 5.81544 76.7145 4.87036C76.3877 3.92528 76.3875 3.92533 76.3873 3.92542C76.387 3.92549 76.3867 3.92561 76.3863 3.92576C76.3854 3.92605 76.3842 3.92649 76.3825 3.92705C76.3793 3.92819 76.3744 3.92987 76.368 3.93208C76.3552 3.93652 76.3362 3.94311 76.3112 3.95182C76.2611 3.96923 76.1868 3.99511 76.0894 4.02914C75.8947 4.09721 75.6077 4.19791 75.2377 4.32877C74.4976 4.59048 73.4253 4.97286 72.0946 5.45611C69.4334 6.42254 65.7374 7.7929 61.5977 9.4089C53.3318 12.6356 43.2476 16.8605 36.1071 20.8144L37.076 22.564ZM7.35213 50.3759C7.9735 51.1594 7.97354 51.1594 7.97366 51.1593C7.9738 51.1592 7.974 51.159 7.97429 51.1588C7.97486 51.1583 7.97574 51.1576 7.97693 51.1567C7.97931 51.1548 7.98292 51.152 7.98775 51.1481C7.9974 51.1405 8.01192 51.129 8.0312 51.1138C8.06977 51.0833 8.12738 51.0378 8.20318 50.978C8.35479 50.8585 8.57917 50.6821 8.86951 50.4549C9.4502 50.0004 10.2947 49.3427 11.3484 48.5311C13.4561 46.9078 16.4001 44.6694 19.7447 42.2097C26.4461 37.2812 34.7129 31.496 41.0823 27.9748L40.1147 26.2244C33.6227 29.8134 25.2662 35.6663 18.5598 40.5985C15.2005 43.069 12.2444 45.3166 10.1281 46.9466C9.06976 47.7617 8.22117 48.4225 7.63682 48.8799C7.34464 49.1086 7.11851 49.2864 6.96523 49.4072C6.88859 49.4676 6.83016 49.5137 6.7908 49.5449C6.77112 49.5604 6.75621 49.5722 6.74617 49.5802C6.74115 49.5842 6.73735 49.5872 6.73477 49.5892C6.73349 49.5902 6.73251 49.591 6.73184 49.5915C6.73151 49.5918 6.73124 49.592 6.73107 49.5921C6.73088 49.5923 6.73077 49.5924 7.35213 50.3759ZM33.4082 108.74C23.5813 95.9756 17.3091 81.3463 13.4928 69.8831C11.5862 64.1561 10.2963 59.2307 9.48355 55.7398C9.07724 53.9947 8.79036 52.6088 8.60541 51.6613C8.51294 51.1877 8.44597 50.8236 8.4023 50.5792C8.38047 50.457 8.36447 50.3647 8.35401 50.3035C8.34879 50.2729 8.34495 50.2501 8.34247 50.2353C8.34123 50.2279 8.34033 50.2224 8.33976 50.219C8.33947 50.2173 8.33927 50.216 8.33916 50.2153C8.3391 50.215 8.33907 50.2148 8.33904 50.2146C8.33904 50.2146 8.33905 50.2147 7.35213 50.3759C6.36521 50.5371 6.36527 50.5375 6.36535 50.5379C6.3654 50.5383 6.3655 50.5389 6.36561 50.5395C6.36582 50.5408 6.36612 50.5426 6.3665 50.545C6.36727 50.5496 6.36837 50.5562 6.36981 50.5648C6.37269 50.5821 6.37694 50.6073 6.38258 50.6403C6.39387 50.7064 6.41074 50.8037 6.43347 50.9309C6.47895 51.1855 6.54787 51.56 6.64246 52.0445C6.83163 53.0136 7.12348 54.423 7.53565 56.1933C8.35987 59.7335 9.66588 64.7195 11.5952 70.5148C15.4508 82.096 21.8104 96.9539 31.8234 109.96L33.4082 108.74ZM77.3357 140.772C77.5571 139.796 77.5574 139.796 77.5576 139.796C77.5576 139.796 77.5577 139.796 77.5575 139.796C77.5573 139.796 77.5567 139.796 77.5557 139.796C77.5537 139.796 77.5502 139.795 77.5453 139.794C77.5353 139.791 77.5194 139.788 77.4977 139.782C77.4543 139.772 77.3875 139.755 77.2984 139.733C77.12 139.687 76.8521 139.616 76.5018 139.517C75.8012 139.317 74.7715 139.002 73.4709 138.543C70.8693 137.625 67.186 136.133 62.8858 133.843C54.2852 129.262 43.2248 121.492 33.4082 108.74L31.8234 109.96C41.8465 122.98 53.1461 130.921 61.9455 135.608C66.3453 137.951 70.122 139.482 72.8054 140.429C74.1473 140.903 75.2164 141.23 75.9539 141.44C76.3227 141.545 76.6087 141.621 76.8045 141.671C76.9024 141.696 76.9778 141.714 77.0297 141.727C77.0557 141.733 77.0758 141.738 77.0899 141.741C77.0969 141.743 77.1025 141.744 77.1066 141.745C77.1086 141.745 77.1103 141.746 77.1115 141.746C77.1122 141.746 77.1129 141.746 77.1132 141.746C77.1137 141.747 77.1142 141.747 77.3357 140.772ZM121.195 108.738C111.321 121.492 100.276 129.262 91.7071 133.843C87.4224 136.134 83.7582 137.626 81.172 138.544C79.8791 139.002 78.856 139.318 78.1602 139.517C77.8124 139.617 77.5463 139.688 77.3693 139.733C77.2808 139.756 77.2146 139.772 77.1715 139.783C77.15 139.788 77.1342 139.792 77.1244 139.794C77.1195 139.795 77.116 139.796 77.1141 139.796C77.1131 139.797 77.1125 139.797 77.1122 139.797C77.1121 139.797 77.1122 139.797 77.1122 139.797C77.1124 139.797 77.1127 139.797 77.3357 140.772C77.5587 141.746 77.5592 141.746 77.5597 141.746C77.5601 141.746 77.5607 141.746 77.5614 141.746C77.5626 141.745 77.5643 141.745 77.5663 141.745C77.5704 141.744 77.5759 141.742 77.5829 141.741C77.597 141.737 77.6169 141.733 77.6427 141.726C77.6943 141.714 77.7692 141.695 77.8665 141.67C78.061 141.62 78.3451 141.545 78.7115 141.44C79.4443 141.23 80.5067 140.902 81.8409 140.428C84.509 139.482 88.2663 137.95 92.65 135.607C101.418 130.92 112.698 122.98 122.776 109.963L121.195 108.738ZM147.319 50.3759C146.332 50.2159 146.332 50.2158 146.332 50.2158C146.332 50.216 146.332 50.2162 146.332 50.2165C146.332 50.2172 146.332 50.2185 146.331 50.2202C146.331 50.2236 146.33 50.229 146.329 50.2365C146.326 50.2513 146.322 50.2741 146.317 50.3047C146.307 50.3658 146.291 50.4581 146.269 50.5803C146.226 50.8247 146.159 51.1886 146.067 51.6623C145.883 52.6096 145.598 53.9954 145.192 55.7404C144.382 59.231 143.094 64.1561 141.186 69.8828C137.366 81.3454 131.077 95.974 121.195 108.738L122.776 109.963C132.846 96.9555 139.224 82.0969 143.083 70.5151C145.014 64.7195 146.319 59.7331 147.141 56.1928C147.552 54.4223 147.842 53.0128 148.031 52.0436C148.125 51.559 148.193 51.1845 148.239 50.9299C148.261 50.8026 148.278 50.7053 148.289 50.6392C148.295 50.6062 148.299 50.5809 148.302 50.5637C148.303 50.555 148.304 50.5484 148.305 50.5438C148.305 50.5414 148.306 50.5396 148.306 50.5383C148.306 50.5377 148.306 50.5371 148.306 50.5367C148.306 50.5363 148.306 50.5359 147.319 50.3759ZM113.061 27.9764C119.985 31.7734 128.387 37.5613 135.08 42.4188C138.421 44.844 141.328 47.0306 143.399 48.6109C144.434 49.4009 145.26 50.0391 145.827 50.4796C146.111 50.6998 146.329 50.8705 146.477 50.9861C146.551 51.0438 146.607 51.0878 146.644 51.1172C146.663 51.1319 146.677 51.143 146.686 51.1504C146.691 51.1541 146.695 51.1568 146.697 51.1586C146.698 51.1595 146.699 51.1602 146.699 51.1606C146.7 51.1609 146.7 51.161 146.7 51.1611C146.7 51.1612 146.7 51.1612 147.319 50.3759C147.938 49.5906 147.938 49.5905 147.938 49.5903C147.938 49.5902 147.938 49.59 147.937 49.5897C147.937 49.5892 147.936 49.5885 147.934 49.5875C147.932 49.5855 147.928 49.5826 147.923 49.5787C147.913 49.571 147.899 49.5596 147.88 49.5445C147.841 49.5144 147.784 49.4697 147.71 49.4112C147.56 49.2942 147.34 49.1219 147.054 48.9001C146.483 48.4565 145.652 47.8147 144.612 47.0209C142.532 45.4334 139.612 43.2368 136.255 40.8002C129.55 35.934 121.064 30.0837 114.023 26.2228L113.061 27.9764ZM77.0535 11.8429C76.7338 12.7904 76.7339 12.7904 76.734 12.7905C76.7341 12.7905 76.7343 12.7906 76.7346 12.7907C76.7353 12.7909 76.7362 12.7912 76.7375 12.7917C76.7401 12.7925 76.744 12.7939 76.7493 12.7957C76.7599 12.7993 76.7759 12.8047 76.7971 12.8119C76.8395 12.8263 76.903 12.8479 76.9866 12.8764C77.1537 12.9335 77.4012 13.0184 77.7214 13.1293C78.3618 13.3511 79.2932 13.6768 80.4548 14.0916C82.7783 14.9214 86.0217 16.1074 89.7001 17.532C97.0674 20.3853 106.139 24.1804 113.061 27.9764L114.023 26.2228C106.981 22.3609 97.8084 18.5276 90.4224 15.667C86.7241 14.2347 83.4637 13.0424 81.1274 12.2081C79.9592 11.7909 79.0218 11.4631 78.3758 11.2394C78.0529 11.1276 77.8028 11.0418 77.6331 10.9838C77.5483 10.9548 77.4836 10.9328 77.44 10.918C77.4181 10.9106 77.4016 10.905 77.3904 10.9012C77.3848 10.8993 77.3806 10.8979 77.3777 10.8969C77.3763 10.8964 77.3752 10.896 77.3744 10.8958C77.374 10.8957 77.3737 10.8956 77.3735 10.8955C77.3733 10.8954 77.3731 10.8954 77.0535 11.8429ZM41.0823 27.9748C47.4504 24.4543 56.5107 20.6603 64.0122 17.7367C67.7562 16.2775 71.0996 15.0398 73.5069 14.167C74.7104 13.7306 75.6796 13.3856 76.3475 13.1498C76.6814 13.0319 76.94 12.9413 77.1149 12.8803C77.2023 12.8498 77.2688 12.8266 77.3133 12.8112C77.3356 12.8035 77.3523 12.7977 77.3635 12.7938C77.369 12.7919 77.3732 12.7904 77.3759 12.7895C77.3773 12.789 77.3783 12.7887 77.379 12.7884C77.3793 12.7883 77.3795 12.7883 77.3797 12.7882C77.3798 12.7882 77.3799 12.7881 77.0535 11.8429C76.7271 10.8977 76.727 10.8977 76.7267 10.8978C76.7266 10.8979 76.7262 10.898 76.7258 10.8981C76.7251 10.8984 76.7239 10.8988 76.7224 10.8993C76.7194 10.9003 76.715 10.9018 76.7092 10.9039C76.6976 10.9079 76.6803 10.9139 76.6575 10.9218C76.612 10.9376 76.5444 10.9611 76.4559 10.992C76.2789 11.0537 76.018 11.1451 75.6817 11.2639C75.009 11.5014 74.0345 11.8483 72.8252 12.2868C70.4068 13.1636 67.048 14.4069 63.2859 15.8732C55.7753 18.8004 46.6081 22.6347 40.1147 26.2244L41.0823 27.9748Z" fill="url(#paint3_linear)" mask="url(#path-15-inside-1)"/>
<path fill-rule="evenodd" clip-rule="evenodd" d="M46.1539 39.6676L64.9386 35.3016L54.4546 28.9332H70.9332L63.8819 21.0279L79.8894 23.822L95.2086 12.0732L113.707 11.6844L151.097 0.896851L161.815 3.77988L167 9.78173L157.806 9.54109L140.465 16.1189L113.707 36.303L128.569 33.814L139.025 32.5164L157.806 36.303H143.789L136.401 38.0368L134.835 38.4045L121.567 44.3096L109.912 52.3746L107.315 65.0813L116.011 75.4832L104.782 68.564L107.315 75.4832L97.2078 71.458L90.5508 90.5034L89.3474 111.167L82.9004 101.417L71.9829 123.455L66.9733 115.011L53.6827 82.6998L46.7774 55.1532L46.1539 39.6676Z" fill="url(#paint4_linear)"/>
<path fill-rule="evenodd" clip-rule="evenodd" d="M97.0526 22.1682L101.933 22.6287L106.363 17.0405L100.56 19.0104L97.0526 22.1682Z" fill="url(#paint5_linear)" stroke="url(#paint6_linear)"/>
<defs>
<linearGradient id="paint0_linear" x1="25.3694" y1="104.224" x2="25.3694" y2="141.665" gradientUnits="userSpaceOnUse">
<stop stop-color="#101414"/>
<stop offset="1" stop-color="#1E2727"/>
</linearGradient>
<linearGradient id="paint1_linear" x1="11.6149" y1="77.005" x2="11.6149" y2="117.601" gradientUnits="userSpaceOnUse">
<stop stop-color="#101414"/>
<stop offset="1" stop-color="#1E2727"/>
</linearGradient>
<linearGradient id="paint2_linear" x1="3.66788" y1="20.7645" x2="3.66788" y2="83.7349" gradientUnits="userSpaceOnUse">
<stop stop-color="#101414"/>
<stop offset="1" stop-color="#1E2727"/>
</linearGradient>
<linearGradient id="paint3_linear" x1="0" y1="4.87036" x2="0" y2="147" gradientUnits="userSpaceOnUse">
<stop stop-color="#00F0E0"/>
<stop offset="1" stop-color="#5EAEFD"/>
</linearGradient>
<linearGradient id="paint4_linear" x1="46.1539" y1="91.8937" x2="104.759" y2="91.8937" gradientUnits="userSpaceOnUse">
<stop stop-color="#101414"/>
<stop offset="1" stop-color="#1E2727"/>
</linearGradient>
<linearGradient id="paint5_linear" x1="97.0526" y1="17.0405" x2="97.0526" y2="22.6287" gradientUnits="userSpaceOnUse">
<stop stop-color="#00F0E0"/>
<stop offset="1" stop-color="#5EAEFD"/>
</linearGradient>
<linearGradient id="paint6_linear" x1="97.0526" y1="17.0405" x2="97.0526" y2="22.6287" gradientUnits="userSpaceOnUse">
<stop stop-color="#00F0E0"/>
<stop offset="1" stop-color="#5EAEFD"/>
</linearGradient>
</defs>
</svg>
